<svg width="200" height="200" viewBox="0 0 200 200" fill="none" xmlns="http://www.w3.org/2000/svg">
    <circle cx="100" cy="100" r="100" fill="black"/>
    <path d="M74.9727 158V41.7891H98.3809V158H74.9727ZM107.346 158V134.592C109.781 134.592 112.049 133.596 114.152 131.604C115.702 129.833 116.532 127.73 116.643 125.295V74.4941C116.643 72.2806 115.702 70.1224 113.82 68.0195C112.049 66.2487 109.891 65.3079 107.346 65.1973V41.7891C119.631 41.7891 128.928 47.2676 135.236 58.2246C138.446 63.8691 140.051 69.2923 140.051 74.4941V125.295C140.051 137.912 134.462 147.32 123.283 153.518C117.749 156.506 112.437 158 107.346 158Z" fill="white"/>
    </svg>
